<svg xmlns="http://www.w3.org/2000/svg" viewBox="0 0 32 32">
  <defs>
    <linearGradient id="g" x1="0" y1="0" x2="0" y2="1">
      <stop offset="0%" stop-color="#4de8ff"/>
      <stop offset="100%" stop-color="#b16dff"/>
    </linearGradient>
  </defs>
  <circle cx="16" cy="16" r="16" fill="#07071a"/>
  <circle cx="7"  cy="7"  r=".8" fill="#fff" opacity=".8"/>
  <circle cx="25" cy="6"  r="1"  fill="#fff" opacity=".9"/>
  <circle cx="27" cy="21" r=".7" fill="#4de8ff" opacity=".8"/>
  <circle cx="5"  cy="23" r=".8" fill="#fff" opacity=".6"/>
  <path d="M16 5C19 8 21 12 21 18L16 21 11 18C11 12 13 8 16 5Z" fill="url(#g)"/>
  <circle cx="16" cy="13" r="2.2" fill="#07071a" opacity=".8"/>
  <circle cx="16" cy="13" r="1.4" fill="#4de8ff" opacity=".7"/>
  <path d="M11 18 7 22 11 21Z" fill="#b16dff"/>
  <path d="M21 18 25 22 21 21Z" fill="#b16dff"/>
  <path d="M13 21Q14 26 16 28Q18 26 19 21" fill="#ff5e9c" opacity=".9"/>
  <path d="M14.5 21Q15.5 25 16 27Q16.5 25 17.5 21" fill="#ffd75e"/>
</svg>
